<?xml version="1.0" encoding="UTF-8"?>
<svg fill="#FEFAE0" width="500pt" height="100pt" version="1.1" viewBox="0 200 700 200" xmlns="http://www.w3.org/2000/svg" xmlns:xlink="http://www.w3.org/1999/xlink">
 <defs>
  <symbol id="u" overflow="visible">
   <path d="m3.125-0.1875c-0.15625 0.085938-0.32422 0.14844-0.5 0.1875-0.17969 0.039062-0.35938 0.0625-0.54688 0.0625-0.5625 0-1.0117-0.15625-1.3438-0.46875-0.33594-0.32031-0.5-0.75391-0.5-1.2969 0-0.53906 0.16406-0.96875 0.5-1.2812 0.33203-0.32031 0.78125-0.48438 1.3438-0.48438 0.1875 0 0.36719 0.023438 0.54688 0.0625 0.17578 0.042969 0.34375 0.10547 0.5 0.1875v0.70312c-0.15625-0.10156-0.32031-0.17969-0.48438-0.23438-0.15625-0.050781-0.32031-0.078125-0.48438-0.078125-0.32422 0-0.57422 0.10156-0.75 0.29688-0.17969 0.19922-0.26562 0.47656-0.26562 0.82812 0 0.35547 0.085937 0.63672 0.26562 0.84375 0.17578 0.19922 0.42578 0.29688 0.75 0.29688 0.16406 0 0.32812-0.023438 0.48438-0.078125 0.16406-0.050781 0.32812-0.13281 0.48438-0.25z"/>
  </symbol>
  <symbol id="c" overflow="visible">
   <path d="m2.2969-1.8594c-0.074219-0.03125-0.14844-0.050781-0.21875-0.0625-0.074219-0.019531-0.14844-0.03125-0.21875-0.03125-0.21094 0-0.37109 0.070313-0.48438 0.20312-0.11719 0.13672-0.17188 0.32812-0.17188 0.57812v1.1719h-0.8125v-2.5625h0.8125v0.42188c0.10156-0.16406 0.22266-0.28516 0.35938-0.35938 0.14453-0.070312 0.3125-0.10938 0.5-0.10938h0.078125c0.039063 0 0.085937 0.007813 0.14062 0.015625z"/>
  </symbol>
  <symbol id="a" overflow="visible">
   <path d="m2.9375-1.2812v0.23438h-1.9062c0.019531 0.1875 0.085938 0.32812 0.20312 0.42188 0.125 0.09375 0.28906 0.14062 0.5 0.14062 0.17578 0 0.35156-0.019531 0.53125-0.0625 0.17578-0.050781 0.36328-0.12891 0.5625-0.23438v0.625c-0.19922 0.074219-0.39844 0.125-0.59375 0.15625-0.1875 0.039062-0.38281 0.0625-0.57812 0.0625-0.46094 0-0.82031-0.11328-1.0781-0.34375-0.25-0.23828-0.375-0.57031-0.375-1 0-0.41406 0.125-0.73828 0.375-0.96875 0.25-0.23828 0.59766-0.35938 1.0469-0.35938 0.39453 0 0.71094 0.12109 0.95312 0.35938 0.23828 0.24219 0.35938 0.5625 0.35938 0.96875zm-0.82812-0.28125c0-0.14453-0.046875-0.26562-0.14062-0.35938-0.09375-0.10156-0.21484-0.15625-0.35938-0.15625-0.15625 0-0.28906 0.046875-0.39062 0.14062-0.09375 0.085938-0.15234 0.21094-0.17188 0.375z"/>
  </symbol>
  <symbol id="k" overflow="visible">
   <path d="m1.5312-1.1562c-0.16797 0-0.29297 0.03125-0.375 0.09375-0.085938 0.0625-0.125 0.14844-0.125 0.25 0 0.10547 0.03125 0.1875 0.09375 0.25 0.070312 0.054688 0.17188 0.078125 0.29688 0.078125 0.14453 0 0.26953-0.050781 0.375-0.15625 0.11328-0.11328 0.17188-0.25391 0.17188-0.42188v-0.09375zm1.25-0.29688v1.4531h-0.8125v-0.375c-0.11719 0.15625-0.24219 0.27344-0.375 0.34375-0.13672 0.0625-0.30469 0.09375-0.5 0.09375-0.26172 0-0.47656-0.070312-0.64062-0.21875-0.16797-0.15625-0.25-0.35938-0.25-0.60938 0-0.30078 0.097656-0.51953 0.29688-0.65625 0.20703-0.14453 0.53516-0.21875 0.98438-0.21875h0.48438v-0.0625c0-0.125-0.054688-0.21875-0.15625-0.28125-0.10547-0.0625-0.26562-0.09375-0.48438-0.09375-0.17969 0-0.33984 0.023437-0.48438 0.0625-0.14844 0.03125-0.28906 0.085937-0.42188 0.15625v-0.625c0.17578-0.039063 0.35156-0.070313 0.53125-0.09375 0.17578-0.019531 0.35156-0.03125 0.53125-0.03125 0.45703 0 0.78516 0.089844 0.98438 0.26562 0.20703 0.17969 0.3125 0.47656 0.3125 0.89062z"/>
  </symbol>
  <symbol id="b" overflow="visible">
   <path d="m1.2812-3.2812v0.71875h0.84375v0.59375h-0.84375v1.0781c0 0.125 0.019531 0.21094 0.0625 0.25 0.050781 0.042969 0.14844 0.0625 0.29688 0.0625h0.42188v0.57812h-0.70312c-0.32422 0-0.55469-0.066406-0.6875-0.20312-0.13672-0.13281-0.20312-0.36328-0.20312-0.6875v-1.0781h-0.40625v-0.59375h0.40625v-0.71875z"/>
  </symbol>
  <symbol id="j" overflow="visible">
   <path d="m2.125-2.1875v-1.3594h0.82812v3.5469h-0.82812v-0.375c-0.10547 0.15625-0.22656 0.27344-0.35938 0.34375-0.13672 0.0625-0.29688 0.09375-0.48438 0.09375-0.3125 0-0.57422-0.125-0.78125-0.375-0.19922-0.25-0.29688-0.57031-0.29688-0.96875 0-0.38281 0.097656-0.70312 0.29688-0.95312 0.20703-0.25 0.46875-0.375 0.78125-0.375 0.17578 0 0.33203 0.039063 0.46875 0.10938 0.14453 0.0625 0.26953 0.16797 0.375 0.3125zm-0.53125 1.6562c0.17578 0 0.30469-0.0625 0.39062-0.1875 0.09375-0.125 0.14062-0.3125 0.14062-0.5625 0-0.23828-0.046875-0.42188-0.14062-0.54688-0.085937-0.125-0.21484-0.1875-0.39062-0.1875-0.17969 0-0.3125 0.0625-0.40625 0.1875-0.085938 0.125-0.125 0.30859-0.125 0.54688 0 0.25 0.039062 0.4375 0.125 0.5625 0.09375 0.125 0.22656 0.1875 0.40625 0.1875z"/>
  </symbol>
  <symbol id="i" overflow="visible">
   <path d="m1.75-0.53125c0.17578 0 0.3125-0.0625 0.40625-0.1875s0.14062-0.3125 0.14062-0.5625c0-0.23828-0.046875-0.42188-0.14062-0.54688s-0.23047-0.1875-0.40625-0.1875c-0.17969 0-0.3125 0.0625-0.40625 0.1875s-0.14062 0.30859-0.14062 0.54688c0 0.25 0.046875 0.4375 0.14062 0.5625s0.22656 0.1875 0.40625 0.1875zm-0.54688-1.6562c0.11328-0.14453 0.23828-0.25 0.375-0.3125 0.13281-0.070312 0.29688-0.10938 0.48438-0.10938 0.3125 0 0.56641 0.125 0.76562 0.375 0.20703 0.25 0.3125 0.57031 0.3125 0.95312 0 0.39844-0.10547 0.71875-0.3125 0.96875-0.19922 0.25-0.45312 0.375-0.76562 0.375-0.1875 0-0.35156-0.03125-0.48438-0.09375-0.13672-0.070312-0.26172-0.1875-0.375-0.34375v0.375h-0.8125v-3.5469h0.8125z"/>
  </symbol>
  <symbol id="h" overflow="visible">
   <path d="m0.0625-2.5625h0.8125l0.6875 1.7344 0.57812-1.7344h0.82812l-1.0781 2.7969c-0.11719 0.28906-0.24609 0.49219-0.39062 0.60938-0.13672 0.11328-0.32422 0.17188-0.5625 0.17188h-0.46875v-0.54688h0.25c0.14453 0 0.25-0.023438 0.3125-0.0625 0.0625-0.042969 0.10938-0.12109 0.14062-0.23438l0.03125-0.078125z"/>
  </symbol>
  <symbol id="g" overflow="visible">
   <path d="m0.42188-3.4062h0.89062v1.25l1.2656-1.25h1.0156l-1.6406 1.6094 1.8125 1.7969h-1.1094l-1.3438-1.3438v1.3438h-0.89062z"/>
  </symbol>
  <symbol id="t" overflow="visible">
   <path d="m0.42188-3.4062h2.375v0.67188h-1.4844v0.625h1.3906v0.67188h-1.3906v0.78125h1.5312v0.65625h-2.4219z"/>
  </symbol>
  <symbol id="f" overflow="visible">
   <path d="m0.42188-3.4062h0.98438l1.25 2.3438v-2.3438h0.82812v3.4062h-0.98438l-1.2344-2.3438v2.3438h-0.84375z"/>
  </symbol>
  <symbol id="e" overflow="visible">
   <path d="m0.54688-0.60938h0.78125v-2.2031l-0.79688 0.17188v-0.59375l0.78125-0.17188h0.84375v2.7969h0.76562v0.60938h-2.375z"/>
  </symbol>
  <symbol id="s" overflow="visible">
   <path d="m2.0781-3.5469v0.53125h-0.45312c-0.11719 0-0.19922 0.023437-0.25 0.0625-0.042969 0.042969-0.0625 0.11719-0.0625 0.21875v0.17188h0.70312v0.59375h-0.70312v1.9688h-0.8125v-1.9688h-0.40625v-0.59375h0.40625v-0.17188c0-0.28125 0.070312-0.48438 0.21875-0.60938 0.15625-0.13281 0.39844-0.20312 0.73438-0.20312z"/>
  </symbol>
  <symbol id="d" overflow="visible">
   <path d="m1.6094-2.0312c-0.17969 0-0.32031 0.070312-0.42188 0.20312-0.09375 0.125-0.14062 0.30859-0.14062 0.54688 0 0.25 0.046875 0.44531 0.14062 0.57812 0.10156 0.125 0.24219 0.1875 0.42188 0.1875 0.17578 0 0.3125-0.0625 0.40625-0.1875 0.09375-0.13281 0.14062-0.32812 0.14062-0.57812 0-0.23828-0.046875-0.42188-0.14062-0.54688-0.09375-0.13281-0.23047-0.20312-0.40625-0.20312zm0-0.57812c0.4375 0 0.78125 0.12109 1.0312 0.35938 0.25 0.23047 0.375 0.55469 0.375 0.96875 0 0.42969-0.125 0.76172-0.375 1-0.25 0.23047-0.59375 0.34375-1.0312 0.34375s-0.78125-0.11328-1.0312-0.34375c-0.25-0.23828-0.375-0.57031-0.375-1 0-0.41406 0.125-0.73828 0.375-0.96875 0.25-0.23828 0.59375-0.35938 1.0312-0.35938z"/>
  </symbol>
  <symbol id="r" overflow="visible">
   <path d="m2.7656-2.125c0.10156-0.16406 0.22266-0.28516 0.35938-0.35938 0.14453-0.082031 0.30078-0.125 0.46875-0.125 0.28906 0 0.51562 0.089844 0.67188 0.26562 0.15625 0.17969 0.23438 0.4375 0.23438 0.78125v1.5625h-0.82812v-1.3281-0.0625c0.007813-0.019531 0.015625-0.050781 0.015625-0.09375 0-0.17578-0.03125-0.30469-0.09375-0.39062-0.054688-0.082031-0.13672-0.125-0.25-0.125-0.15625 0-0.27734 0.0625-0.35938 0.1875-0.085937 0.125-0.125 0.3125-0.125 0.5625v1.25h-0.82812v-1.3281c0-0.28125-0.027344-0.46094-0.078125-0.54688-0.042969-0.082031-0.125-0.125-0.25-0.125-0.15625 0-0.28125 0.070312-0.375 0.20312-0.085937 0.125-0.125 0.30859-0.125 0.54688v1.25h-0.8125v-2.5625h0.8125v0.375c0.10156-0.13281 0.21875-0.23828 0.34375-0.3125 0.13281-0.070312 0.28125-0.10938 0.4375-0.10938 0.17578 0 0.33203 0.042969 0.46875 0.125 0.13281 0.085937 0.23828 0.20312 0.3125 0.35938z"/>
  </symbol>
  <symbol id="q" overflow="visible">
   <path d="m2.9688-1.5625v1.5625h-0.82812v-1.1875c0-0.21875-0.007813-0.36719-0.015625-0.45312-0.011719-0.082031-0.027344-0.14453-0.046875-0.1875-0.03125-0.050781-0.078125-0.09375-0.14062-0.125-0.054688-0.03125-0.11719-0.046875-0.1875-0.046875-0.16797 0-0.30469 0.070312-0.40625 0.20312-0.09375 0.125-0.14062 0.30859-0.14062 0.54688v1.25h-0.8125v-3.5469h0.8125v1.3594c0.125-0.14453 0.25391-0.25 0.39062-0.3125 0.14453-0.070312 0.30078-0.10938 0.46875-0.10938 0.28906 0 0.51562 0.089844 0.67188 0.26562 0.15625 0.17969 0.23438 0.4375 0.23438 0.78125z"/>
  </symbol>
  <symbol id="p" overflow="visible">
   <path d="m0.35938-1v-1.5625h0.82812v0.26562 0.51562 0.42188c0 0.21094 0.003906 0.35938 0.015625 0.45312 0.007813 0.085938 0.023437 0.14844 0.046875 0.1875 0.03125 0.054688 0.070312 0.09375 0.125 0.125 0.0625 0.03125 0.125 0.046875 0.1875 0.046875 0.17578 0 0.3125-0.0625 0.40625-0.1875 0.09375-0.13281 0.14062-0.32031 0.14062-0.5625v-1.2656h0.82812v2.5625h-0.82812v-0.375c-0.11719 0.15625-0.24609 0.27344-0.39062 0.34375-0.13672 0.0625-0.28906 0.09375-0.45312 0.09375-0.29297 0-0.51562-0.085938-0.67188-0.26562-0.15625-0.1875-0.23438-0.45312-0.23438-0.79688z"/>
  </symbol>
  <symbol id="o" overflow="visible">
   <path d="m2.9688-1.5625v1.5625h-0.82812v-1.1875c0-0.21875-0.007813-0.36719-0.015625-0.45312-0.011719-0.082031-0.027344-0.14453-0.046875-0.1875-0.03125-0.050781-0.078125-0.09375-0.14062-0.125-0.054688-0.03125-0.11719-0.046875-0.1875-0.046875-0.16797 0-0.30469 0.070312-0.40625 0.20312-0.09375 0.125-0.14062 0.30859-0.14062 0.54688v1.25h-0.8125v-2.5625h0.8125v0.375c0.125-0.14453 0.25391-0.25 0.39062-0.3125 0.14453-0.070312 0.30078-0.10938 0.46875-0.10938 0.28906 0 0.51562 0.089844 0.67188 0.26562 0.15625 0.17969 0.23438 0.4375 0.23438 0.78125z"/>
  </symbol>
  <symbol id="n" overflow="visible">
   <path d="m0.42188-3.4062h1.4688c0.42578 0 0.75391 0.10156 0.98438 0.29688 0.23828 0.1875 0.35938 0.46094 0.35938 0.8125 0 0.35547-0.12109 0.63281-0.35938 0.82812-0.23047 0.1875-0.55859 0.28125-0.98438 0.28125h-0.57812v1.1875h-0.89062zm0.89062 0.64062v0.95312h0.48438c0.16406 0 0.29688-0.039062 0.39062-0.125 0.09375-0.082031 0.14062-0.20312 0.14062-0.35938 0-0.14453-0.046875-0.25781-0.14062-0.34375-0.09375-0.082031-0.22656-0.125-0.39062-0.125z"/>
  </symbol>
  <symbol id="m" overflow="visible">
   <path d="m0.39062-2.5625h0.8125v2.5156c0 0.34375-0.085937 0.60156-0.25 0.78125-0.15625 0.1875-0.39062 0.28125-0.70312 0.28125h-0.40625v-0.54688h0.14062c0.15625 0 0.25781-0.039062 0.3125-0.10938 0.0625-0.0625 0.09375-0.19922 0.09375-0.40625zm0-0.98438h0.8125v0.65625h-0.8125z"/>
  </symbol>
  <symbol id="l" overflow="visible">
   <path d="m2.4531-2.4688v0.65625c-0.10547-0.070312-0.21484-0.125-0.32812-0.15625-0.11719-0.039062-0.23047-0.0625-0.34375-0.0625-0.23047 0-0.41406 0.070312-0.54688 0.20312-0.125 0.125-0.1875 0.30859-0.1875 0.54688 0 0.24219 0.0625 0.42969 0.1875 0.5625 0.13281 0.13672 0.31641 0.20312 0.54688 0.20312 0.125 0 0.24219-0.015625 0.35938-0.046875 0.11328-0.039062 0.21875-0.10156 0.3125-0.1875v0.67188c-0.125 0.054688-0.25781 0.085938-0.39062 0.10938-0.125 0.019531-0.25781 0.03125-0.39062 0.03125-0.46094 0-0.82031-0.11328-1.0781-0.34375-0.26172-0.23828-0.39062-0.57031-0.39062-1 0-0.41406 0.12891-0.73828 0.39062-0.96875 0.25781-0.23828 0.61719-0.35938 1.0781-0.35938 0.13281 0 0.26562 0.011719 0.39062 0.03125 0.13281 0.023437 0.26562 0.058594 0.39062 0.10938z"/>
  </symbol>
 </defs>
 <g>
  <path d="m618.8 276.12v31.082c0 3.0938-2.5078 5.6016-5.6016 5.6016s-5.5977-2.5078-5.5977-5.6016v-9.5586h-515.2v9.5586c0 3.0938-2.5039 5.6016-5.5977 5.6016s-5.6016-2.5078-5.6016-5.6016v-31.082c0-3.0898 2.5078-5.5977 5.6016-5.5977s5.5977 2.5078 5.5977 5.5977v9.5586h515.2v-9.5586c0-3.0898 2.5039-5.5977 5.5977-5.5977s5.6016 2.5078 5.6016 5.5977zm-541.71 15.543c0 3.9609-1.5742 7.7578-4.375 10.559-2.8008 2.8008-6.6016 4.375-10.559 4.375-3.9609 0-7.7617-1.5742-10.562-4.375-2.8008-2.8008-4.3711-6.5977-4.3711-10.559 0-3.9609 1.5703-7.7617 4.3711-10.562 2.8008-2.7969 6.6016-4.3711 10.562-4.3711 3.957 0 7.7578 1.5742 10.559 4.3711 2.8008 2.8008 4.375 6.6016 4.375 10.562zm575.7 0h-0.003906c0 3.9609-1.5703 7.7578-4.3711 10.559-2.8008 2.8008-6.6016 4.375-10.562 4.375-3.957 0-7.7578-1.5742-10.559-4.375-2.8008-2.8008-4.375-6.5977-4.375-10.559 0-3.9609 1.5742-7.7617 4.375-10.562 2.8008-2.7969 6.6016-4.3711 10.559-4.3711 3.9609 0 7.7617 1.5742 10.562 4.3711 2.8008 2.8008 4.3711 6.6016 4.3711 10.562zm-596.36-25.902-3.9766-13.727 13.719 3.9844c3.7539 1.0977 6.1289 4.7852 5.5781 8.6523-0.54688 3.8711-3.8516 6.75-7.7617 6.7656-3.5 0-6.5781-2.3125-7.5586-5.6758zm15.438 53.996c0 3.4961-2.3125 6.5781-5.6758 7.5508l-13.719 3.9844 3.9766-13.73c0.97656-3.3594 4.0586-5.6719 7.5586-5.6758 4.3438 0.007813 7.8594 3.5273 7.8594 7.8711zm556.27-56.188c0-3.5 2.3125-6.5781 5.6758-7.5508l13.719-3.9844-3.9766 13.73v-0.003906c-1.0977 3.7539-4.7852 6.1289-8.6562 5.5781-3.8711-0.55078-6.7539-3.8594-6.7617-7.7695zm15.418 53.992 3.9766 13.73-13.719-3.9844c-3.3633-0.97266-5.6758-4.0547-5.6758-7.5508 0.007813-3.9102 2.8906-7.2227 6.7617-7.7734 3.8711-0.55078 7.5586 1.8242 8.6562 5.5781z"/>
 </g>
</svg>
