<?xml version="1.0" encoding="UTF-8"?>
<svg fill="#fefae0" width="700pt" height="700pt" version="1.1" viewBox="0 250 700 50" xmlns="http://www.w3.org/2000/svg" xmlns:xlink="http://www.w3.org/1999/xlink">
 <defs>
  <symbol id="u" overflow="visible">
   <path d="m3.125-0.1875c-0.15625 0.085938-0.32422 0.14844-0.5 0.1875-0.17969 0.039062-0.35938 0.0625-0.54688 0.0625-0.5625 0-1.0117-0.15625-1.3438-0.46875-0.33594-0.32031-0.5-0.75391-0.5-1.2969 0-0.53906 0.16406-0.96875 0.5-1.2812 0.33203-0.32031 0.78125-0.48438 1.3438-0.48438 0.1875 0 0.36719 0.023438 0.54688 0.0625 0.17578 0.042969 0.34375 0.10547 0.5 0.1875v0.70312c-0.15625-0.10156-0.32031-0.17969-0.48438-0.23438-0.15625-0.050781-0.32031-0.078125-0.48438-0.078125-0.32422 0-0.57422 0.10156-0.75 0.29688-0.17969 0.19922-0.26562 0.47656-0.26562 0.82812 0 0.35547 0.085937 0.63672 0.26562 0.84375 0.17578 0.19922 0.42578 0.29688 0.75 0.29688 0.16406 0 0.32812-0.023438 0.48438-0.078125 0.16406-0.050781 0.32812-0.13281 0.48438-0.25z"/>
  </symbol>
  <symbol id="c" overflow="visible">
   <path d="m2.2969-1.8594c-0.074219-0.03125-0.14844-0.050781-0.21875-0.0625-0.074219-0.019531-0.14844-0.03125-0.21875-0.03125-0.21094 0-0.37109 0.070313-0.48438 0.20312-0.11719 0.13672-0.17188 0.32812-0.17188 0.57812v1.1719h-0.8125v-2.5625h0.8125v0.42188c0.10156-0.16406 0.22266-0.28516 0.35938-0.35938 0.14453-0.070312 0.3125-0.10938 0.5-0.10938h0.078125c0.039063 0 0.085937 0.007813 0.14062 0.015625z"/>
  </symbol>
  <symbol id="a" overflow="visible">
   <path d="m2.9375-1.2812v0.23438h-1.9062c0.019531 0.1875 0.085938 0.32812 0.20312 0.42188 0.125 0.09375 0.28906 0.14062 0.5 0.14062 0.17578 0 0.35156-0.019531 0.53125-0.0625 0.17578-0.050781 0.36328-0.12891 0.5625-0.23438v0.625c-0.19922 0.074219-0.39844 0.125-0.59375 0.15625-0.1875 0.039062-0.38281 0.0625-0.57812 0.0625-0.46094 0-0.82031-0.11328-1.0781-0.34375-0.25-0.23828-0.375-0.57031-0.375-1 0-0.41406 0.125-0.73828 0.375-0.96875 0.25-0.23828 0.59766-0.35938 1.0469-0.35938 0.39453 0 0.71094 0.12109 0.95312 0.35938 0.23828 0.24219 0.35938 0.5625 0.35938 0.96875zm-0.82812-0.28125c0-0.14453-0.046875-0.26562-0.14062-0.35938-0.09375-0.10156-0.21484-0.15625-0.35938-0.15625-0.15625 0-0.28906 0.046875-0.39062 0.14062-0.09375 0.085938-0.15234 0.21094-0.17188 0.375z"/>
  </symbol>
  <symbol id="k" overflow="visible">
   <path d="m1.5312-1.1562c-0.16797 0-0.29297 0.03125-0.375 0.09375-0.085938 0.0625-0.125 0.14844-0.125 0.25 0 0.10547 0.03125 0.1875 0.09375 0.25 0.070312 0.054688 0.17188 0.078125 0.29688 0.078125 0.14453 0 0.26953-0.050781 0.375-0.15625 0.11328-0.11328 0.17188-0.25391 0.17188-0.42188v-0.09375zm1.25-0.29688v1.4531h-0.8125v-0.375c-0.11719 0.15625-0.24219 0.27344-0.375 0.34375-0.13672 0.0625-0.30469 0.09375-0.5 0.09375-0.26172 0-0.47656-0.070312-0.64062-0.21875-0.16797-0.15625-0.25-0.35938-0.25-0.60938 0-0.30078 0.097656-0.51953 0.29688-0.65625 0.20703-0.14453 0.53516-0.21875 0.98438-0.21875h0.48438v-0.0625c0-0.125-0.054688-0.21875-0.15625-0.28125-0.10547-0.0625-0.26562-0.09375-0.48438-0.09375-0.17969 0-0.33984 0.023437-0.48438 0.0625-0.14844 0.03125-0.28906 0.085937-0.42188 0.15625v-0.625c0.17578-0.039063 0.35156-0.070313 0.53125-0.09375 0.17578-0.019531 0.35156-0.03125 0.53125-0.03125 0.45703 0 0.78516 0.089844 0.98438 0.26562 0.20703 0.17969 0.3125 0.47656 0.3125 0.89062z"/>
  </symbol>
  <symbol id="b" overflow="visible">
   <path d="m1.2812-3.2812v0.71875h0.84375v0.59375h-0.84375v1.0781c0 0.125 0.019531 0.21094 0.0625 0.25 0.050781 0.042969 0.14844 0.0625 0.29688 0.0625h0.42188v0.57812h-0.70312c-0.32422 0-0.55469-0.066406-0.6875-0.20312-0.13672-0.13281-0.20312-0.36328-0.20312-0.6875v-1.0781h-0.40625v-0.59375h0.40625v-0.71875z"/>
  </symbol>
  <symbol id="j" overflow="visible">
   <path d="m2.125-2.1875v-1.3594h0.82812v3.5469h-0.82812v-0.375c-0.10547 0.15625-0.22656 0.27344-0.35938 0.34375-0.13672 0.0625-0.29688 0.09375-0.48438 0.09375-0.3125 0-0.57422-0.125-0.78125-0.375-0.19922-0.25-0.29688-0.57031-0.29688-0.96875 0-0.38281 0.097656-0.70312 0.29688-0.95312 0.20703-0.25 0.46875-0.375 0.78125-0.375 0.17578 0 0.33203 0.039063 0.46875 0.10938 0.14453 0.0625 0.26953 0.16797 0.375 0.3125zm-0.53125 1.6562c0.17578 0 0.30469-0.0625 0.39062-0.1875 0.09375-0.125 0.14062-0.3125 0.14062-0.5625 0-0.23828-0.046875-0.42188-0.14062-0.54688-0.085937-0.125-0.21484-0.1875-0.39062-0.1875-0.17969 0-0.3125 0.0625-0.40625 0.1875-0.085938 0.125-0.125 0.30859-0.125 0.54688 0 0.25 0.039062 0.4375 0.125 0.5625 0.09375 0.125 0.22656 0.1875 0.40625 0.1875z"/>
  </symbol>
  <symbol id="i" overflow="visible">
   <path d="m1.75-0.53125c0.17578 0 0.3125-0.0625 0.40625-0.1875s0.14062-0.3125 0.14062-0.5625c0-0.23828-0.046875-0.42188-0.14062-0.54688s-0.23047-0.1875-0.40625-0.1875c-0.17969 0-0.3125 0.0625-0.40625 0.1875s-0.14062 0.30859-0.14062 0.54688c0 0.25 0.046875 0.4375 0.14062 0.5625s0.22656 0.1875 0.40625 0.1875zm-0.54688-1.6562c0.11328-0.14453 0.23828-0.25 0.375-0.3125 0.13281-0.070312 0.29688-0.10938 0.48438-0.10938 0.3125 0 0.56641 0.125 0.76562 0.375 0.20703 0.25 0.3125 0.57031 0.3125 0.95312 0 0.39844-0.10547 0.71875-0.3125 0.96875-0.19922 0.25-0.45312 0.375-0.76562 0.375-0.1875 0-0.35156-0.03125-0.48438-0.09375-0.13672-0.070312-0.26172-0.1875-0.375-0.34375v0.375h-0.8125v-3.5469h0.8125z"/>
  </symbol>
  <symbol id="h" overflow="visible">
   <path d="m0.0625-2.5625h0.8125l0.6875 1.7344 0.57812-1.7344h0.82812l-1.0781 2.7969c-0.11719 0.28906-0.24609 0.49219-0.39062 0.60938-0.13672 0.11328-0.32422 0.17188-0.5625 0.17188h-0.46875v-0.54688h0.25c0.14453 0 0.25-0.023438 0.3125-0.0625 0.0625-0.042969 0.10938-0.12109 0.14062-0.23438l0.03125-0.078125z"/>
  </symbol>
  <symbol id="g" overflow="visible">
   <path d="m0.42188-3.4062h0.89062v1.25l1.2656-1.25h1.0156l-1.6406 1.6094 1.8125 1.7969h-1.1094l-1.3438-1.3438v1.3438h-0.89062z"/>
  </symbol>
  <symbol id="t" overflow="visible">
   <path d="m0.42188-3.4062h2.375v0.67188h-1.4844v0.625h1.3906v0.67188h-1.3906v0.78125h1.5312v0.65625h-2.4219z"/>
  </symbol>
  <symbol id="f" overflow="visible">
   <path d="m0.42188-3.4062h0.98438l1.25 2.3438v-2.3438h0.82812v3.4062h-0.98438l-1.2344-2.3438v2.3438h-0.84375z"/>
  </symbol>
  <symbol id="e" overflow="visible">
   <path d="m0.54688-0.60938h0.78125v-2.2031l-0.79688 0.17188v-0.59375l0.78125-0.17188h0.84375v2.7969h0.76562v0.60938h-2.375z"/>
  </symbol>
  <symbol id="s" overflow="visible">
   <path d="m2.0781-3.5469v0.53125h-0.45312c-0.11719 0-0.19922 0.023437-0.25 0.0625-0.042969 0.042969-0.0625 0.11719-0.0625 0.21875v0.17188h0.70312v0.59375h-0.70312v1.9688h-0.8125v-1.9688h-0.40625v-0.59375h0.40625v-0.17188c0-0.28125 0.070312-0.48438 0.21875-0.60938 0.15625-0.13281 0.39844-0.20312 0.73438-0.20312z"/>
  </symbol>
  <symbol id="d" overflow="visible">
   <path d="m1.6094-2.0312c-0.17969 0-0.32031 0.070312-0.42188 0.20312-0.09375 0.125-0.14062 0.30859-0.14062 0.54688 0 0.25 0.046875 0.44531 0.14062 0.57812 0.10156 0.125 0.24219 0.1875 0.42188 0.1875 0.17578 0 0.3125-0.0625 0.40625-0.1875 0.09375-0.13281 0.14062-0.32812 0.14062-0.57812 0-0.23828-0.046875-0.42188-0.14062-0.54688-0.09375-0.13281-0.23047-0.20312-0.40625-0.20312zm0-0.57812c0.4375 0 0.78125 0.12109 1.0312 0.35938 0.25 0.23047 0.375 0.55469 0.375 0.96875 0 0.42969-0.125 0.76172-0.375 1-0.25 0.23047-0.59375 0.34375-1.0312 0.34375s-0.78125-0.11328-1.0312-0.34375c-0.25-0.23828-0.375-0.57031-0.375-1 0-0.41406 0.125-0.73828 0.375-0.96875 0.25-0.23828 0.59375-0.35938 1.0312-0.35938z"/>
  </symbol>
  <symbol id="r" overflow="visible">
   <path d="m2.7656-2.125c0.10156-0.16406 0.22266-0.28516 0.35938-0.35938 0.14453-0.082031 0.30078-0.125 0.46875-0.125 0.28906 0 0.51562 0.089844 0.67188 0.26562 0.15625 0.17969 0.23438 0.4375 0.23438 0.78125v1.5625h-0.82812v-1.3281-0.0625c0.007813-0.019531 0.015625-0.050781 0.015625-0.09375 0-0.17578-0.03125-0.30469-0.09375-0.39062-0.054688-0.082031-0.13672-0.125-0.25-0.125-0.15625 0-0.27734 0.0625-0.35938 0.1875-0.085937 0.125-0.125 0.3125-0.125 0.5625v1.25h-0.82812v-1.3281c0-0.28125-0.027344-0.46094-0.078125-0.54688-0.042969-0.082031-0.125-0.125-0.25-0.125-0.15625 0-0.28125 0.070312-0.375 0.20312-0.085937 0.125-0.125 0.30859-0.125 0.54688v1.25h-0.8125v-2.5625h0.8125v0.375c0.10156-0.13281 0.21875-0.23828 0.34375-0.3125 0.13281-0.070312 0.28125-0.10938 0.4375-0.10938 0.17578 0 0.33203 0.042969 0.46875 0.125 0.13281 0.085937 0.23828 0.20312 0.3125 0.35938z"/>
  </symbol>
  <symbol id="q" overflow="visible">
   <path d="m2.9688-1.5625v1.5625h-0.82812v-1.1875c0-0.21875-0.007813-0.36719-0.015625-0.45312-0.011719-0.082031-0.027344-0.14453-0.046875-0.1875-0.03125-0.050781-0.078125-0.09375-0.14062-0.125-0.054688-0.03125-0.11719-0.046875-0.1875-0.046875-0.16797 0-0.30469 0.070312-0.40625 0.20312-0.09375 0.125-0.14062 0.30859-0.14062 0.54688v1.25h-0.8125v-3.5469h0.8125v1.3594c0.125-0.14453 0.25391-0.25 0.39062-0.3125 0.14453-0.070312 0.30078-0.10938 0.46875-0.10938 0.28906 0 0.51562 0.089844 0.67188 0.26562 0.15625 0.17969 0.23438 0.4375 0.23438 0.78125z"/>
  </symbol>
  <symbol id="p" overflow="visible">
   <path d="m0.35938-1v-1.5625h0.82812v0.26562 0.51562 0.42188c0 0.21094 0.003906 0.35938 0.015625 0.45312 0.007813 0.085938 0.023437 0.14844 0.046875 0.1875 0.03125 0.054688 0.070312 0.09375 0.125 0.125 0.0625 0.03125 0.125 0.046875 0.1875 0.046875 0.17578 0 0.3125-0.0625 0.40625-0.1875 0.09375-0.13281 0.14062-0.32031 0.14062-0.5625v-1.2656h0.82812v2.5625h-0.82812v-0.375c-0.11719 0.15625-0.24609 0.27344-0.39062 0.34375-0.13672 0.0625-0.28906 0.09375-0.45312 0.09375-0.29297 0-0.51562-0.085938-0.67188-0.26562-0.15625-0.1875-0.23438-0.45312-0.23438-0.79688z"/>
  </symbol>
  <symbol id="o" overflow="visible">
   <path d="m2.9688-1.5625v1.5625h-0.82812v-1.1875c0-0.21875-0.007813-0.36719-0.015625-0.45312-0.011719-0.082031-0.027344-0.14453-0.046875-0.1875-0.03125-0.050781-0.078125-0.09375-0.14062-0.125-0.054688-0.03125-0.11719-0.046875-0.1875-0.046875-0.16797 0-0.30469 0.070312-0.40625 0.20312-0.09375 0.125-0.14062 0.30859-0.14062 0.54688v1.25h-0.8125v-2.5625h0.8125v0.375c0.125-0.14453 0.25391-0.25 0.39062-0.3125 0.14453-0.070312 0.30078-0.10938 0.46875-0.10938 0.28906 0 0.51562 0.089844 0.67188 0.26562 0.15625 0.17969 0.23438 0.4375 0.23438 0.78125z"/>
  </symbol>
  <symbol id="n" overflow="visible">
   <path d="m0.42188-3.4062h1.4688c0.42578 0 0.75391 0.10156 0.98438 0.29688 0.23828 0.1875 0.35938 0.46094 0.35938 0.8125 0 0.35547-0.12109 0.63281-0.35938 0.82812-0.23047 0.1875-0.55859 0.28125-0.98438 0.28125h-0.57812v1.1875h-0.89062zm0.89062 0.64062v0.95312h0.48438c0.16406 0 0.29688-0.039062 0.39062-0.125 0.09375-0.082031 0.14062-0.20312 0.14062-0.35938 0-0.14453-0.046875-0.25781-0.14062-0.34375-0.09375-0.082031-0.22656-0.125-0.39062-0.125z"/>
  </symbol>
  <symbol id="m" overflow="visible">
   <path d="m0.39062-2.5625h0.8125v2.5156c0 0.34375-0.085937 0.60156-0.25 0.78125-0.15625 0.1875-0.39062 0.28125-0.70312 0.28125h-0.40625v-0.54688h0.14062c0.15625 0 0.25781-0.039062 0.3125-0.10938 0.0625-0.0625 0.09375-0.19922 0.09375-0.40625zm0-0.98438h0.8125v0.65625h-0.8125z"/>
  </symbol>
  <symbol id="l" overflow="visible">
   <path d="m2.4531-2.4688v0.65625c-0.10547-0.070312-0.21484-0.125-0.32812-0.15625-0.11719-0.039062-0.23047-0.0625-0.34375-0.0625-0.23047 0-0.41406 0.070312-0.54688 0.20312-0.125 0.125-0.1875 0.30859-0.1875 0.54688 0 0.24219 0.0625 0.42969 0.1875 0.5625 0.13281 0.13672 0.31641 0.20312 0.54688 0.20312 0.125 0 0.24219-0.015625 0.35938-0.046875 0.11328-0.039062 0.21875-0.10156 0.3125-0.1875v0.67188c-0.125 0.054688-0.25781 0.085938-0.39062 0.10938-0.125 0.019531-0.25781 0.03125-0.39062 0.03125-0.46094 0-0.82031-0.11328-1.0781-0.34375-0.26172-0.23828-0.39062-0.57031-0.39062-1 0-0.41406 0.12891-0.73828 0.39062-0.96875 0.25781-0.23828 0.61719-0.35938 1.0781-0.35938 0.13281 0 0.26562 0.011719 0.39062 0.03125 0.13281 0.023437 0.26562 0.058594 0.39062 0.10938z"/>
  </symbol>
 </defs>
 <g>
  <path d="m326.49 286.61h-129.04c-9.332-4.7969-18.945-8.8203-29.309-8.9414-10.984-0.12891-21.297 4.1523-31.324 8.9414h-34.371c-11.148 0-22.293 0.26562-33.422 0.79297-5.293-4.668-10.211-10.051-15.41-14.785-5.5547-5.0508-12.133-9.6992-19.602-10.172-5.0781-0.31641-10.594 1.6797-13.207 6.0586s-1.1094 11.078 3.6406 12.926c4.75 1.8477 10.809-3.6133 8.6328-8.2227-1.5586 2.1484-4.043 2.6602-5.4023 1.7266-0.17578-0.125-0.33594-0.27344-0.47266-0.44141-0.82031-1.0703-0.65625-2.5898 0.37109-3.4609 3.6484-3.2578 9.9883-2.5117 14.484 0 6.9844 3.8359 11.648 10.434 16.445 16.902-9.957 0.62109-19.867 1.4297-29.734 2.4258l-12.414 1.3086 12.414 1.2773c11.934 1.2461 23.895 2.1797 35.887 2.8008 1.2695 1.4453 2.6289 2.8047 4.0703 4.0781 8.2617 7.1875 19.516 10.406 30.453 10.109s21.598-3.9219 31.266-9.0547c1.707-0.93359 3.3984-1.8672 5.0977-2.8008-0.75781 2.1445-1.2148 4.3867-1.3555 6.6562-0.085938 1.4297 0.039062 2.8633 0.36719 4.2539 0.65234 2.3711 1.9688 4.5078 3.7891 6.1602 2.3281 2.0938 5.2383 3.4258 8.3438 3.8164 4.2773 0.71875 8.6719-0.10938 12.395-2.3398 2.2227-1.418 4.1992-3.5547 4.5273-6.168v-0.003906c0.13281-1.2422-0.054688-2.5-0.55078-3.6484-0.82422-1.9102-2.293-3.4648-4.1562-4.3945-1.7734-0.73047-3.6797-1.0938-5.5977-1.0742 1.2344 1.3906 2.0586 3.0977 2.3789 4.9297 0.15625 1.0156-0.023438 2.0547-0.51172 2.957-1.2305 2.043-4.0312 2.1836-4.668 2.1758-1.6562 0-3.2695-0.52344-4.6094-1.4961-1.0312-1.0508-1.7617-2.3594-2.1211-3.7891-0.69141-2.9414 0.45703-6.3008 3.0039-9.332h45.613c6.4102 3.5742 12.562 7.625 19.02 11.133 3.8086 2.0703 28.383 16.371 55.422 12.348 20.105-2.9883 34.469-14.934 42.504-23.484h17.172l0.003906 0.003906c1.3438 0 2.6289-0.53125 3.5781-1.4805 0.94922-0.94922 1.4805-2.2383 1.4805-3.5781 0.015625-1.3555-0.51172-2.6602-1.4688-3.6211-0.95312-0.96094-2.2539-1.5-3.6094-1.4922zm-238.93 11.863v-0.003906c-1.8594-0.53125-3.6719-1.2148-5.4219-2.043 6.7695 0.19922 13.543 0.29688 20.32 0.29688l11.414 0.003906c-8.6719 2.8555-17.648 4.1602-26.32 1.7422zm179.76 9.3906c-14.598 2.1289-28.43-0.14844-50.672-11.133h77.039c-10.816 7.7695-20.219 10.234-26.375 11.129z"/>
  <path d="m683.65 291.67-12.414-1.2773c-9.8945-1.0156-19.805-1.8242-29.734-2.4258 4.7969-6.5352 9.4648-13.066 16.426-16.941 4.5-2.5 10.836-3.2461 14.484 0v-0.003907c1.0273 0.87109 1.1914 2.3945 0.375 3.4648-0.14062 0.16797-0.30078 0.3125-0.47656 0.4375-1.3633 0.93359-3.8438 0.42188-5.4023-1.7266-2.1758 4.6094 3.8828 10.062 8.6328 8.2227 4.75-1.8398 6.2539-8.5586 3.6406-12.926-2.6133-4.3672-8.1289-6.375-13.207-6.0586-7.4648 0.47656-14 5.125-19.602 10.172-5.1992 4.7305-10.117 10.09-15.41 14.785-11.125-0.52344-22.266-0.78906-33.422-0.79297h-34.355c-10.023-4.7891-20.336-9.0703-31.324-8.9414-10.359 0.12109-19.973 4.1445-29.309 8.9414h-129.04c-2.793 0-5.0586 2.2656-5.0586 5.0586s2.2656 5.0586 5.0586 5.0586h17.172c8.0352 8.5117 22.398 20.535 42.504 23.484 27.066 4.0234 51.613-10.266 55.422-12.348 6.457-3.5078 12.609-7.5586 19.02-11.133h45.613c2.5469 3.0352 3.7344 6.3945 3.0039 9.332-0.35547 1.4258-1.0859 2.7344-2.1172 3.7891-1.3398 0.97266-2.9531 1.4961-4.6094 1.4922-0.625 0-3.4258-0.12891-4.668-2.1758-0.48828-0.90234-0.66797-1.9414-0.51172-2.957 0.32031-1.832 1.1445-3.5391 2.3789-4.9297-1.918-0.019531-3.8242 0.34766-5.6016 1.0742-1.8594 0.92969-3.332 2.4883-4.1523 4.3945-0.49219 1.1523-0.67969 2.4062-0.55078 3.6523 0.32813 2.6133 2.3047 4.75 4.5273 6.168 3.7227 2.2305 8.1172 3.0586 12.395 2.3438 3.1055-0.39453 6.0156-1.7266 8.3438-3.8164 1.8203-1.6562 3.1367-3.793 3.8008-6.1602 0.32031-1.3945 0.4375-2.8281 0.35156-4.2578-0.14062-2.2695-0.59375-4.5117-1.3516-6.6562 1.6992 0.93359 3.3867 1.9336 5.0977 2.8008 9.668 5.1328 20.328 8.7461 31.266 9.0547 10.938 0.30859 22.195-2.9219 30.453-10.109 1.4414-1.2695 2.8008-2.6328 4.0703-4.0781 11.984-0.62109 23.945-1.5547 35.887-2.8008zm-250.96 16.191c-6.1211-0.93359-15.559-3.3594-26.367-11.133h77.039c-22.242 10.984-36.074 13.262-50.672 11.133zm179.76-9.3906c-8.6719 2.418-17.648 1.1094-26.32-1.7461h11.426c6.7773 0 13.551-0.097656 20.32-0.29688h-0.003906c-1.75 0.82812-3.5625 1.5117-5.4219 2.043z"/>
 </g>
</svg>
